<?xml version="1.0" encoding="utf-8"?>
<!-- Generator: Adobe Illustrator 19.0.0, SVG Export Plug-In . SVG Version: 6.00 Build 0)  -->
<svg version="1.1" id="Layer_1" xmlns="http://www.w3.org/2000/svg" xmlns:xlink="http://www.w3.org/1999/xlink" x="0px" y="0px"
	 viewBox="-224 102.2 391.1 391.1" style="enable-background:new -224 102.2 391.1 391.1;" xml:space="preserve">
<style type="text/css">
	.st0{fill:none;}
	.st1{fill:#FFFFFF;}
</style>
<title>Icon_home_remixofdynamitt</title>
<rect x="-222.5" y="103.7" class="st0" width="388.1" height="388.1"/>
<g id="layer1">
	<path id="rect2391" class="st1" d="M97.9,300.6L-28.4,188.7l-126.4,111.9v159.9c0,4.1,3.3,7.4,7.4,7.5c0,0,0,0,0,0h79v-70.1
		c0-4.1,3.3-7.4,7.4-7.5c0,0,0,0,0,0H4c4.1,0,7.4,3.3,7.5,7.4c0,0,0,0,0,0v70.1h79c4.1,0,7.4-3.3,7.5-7.4c0,0,0,0,0-0.1L97.9,300.6
		L97.9,300.6z"/>
	<path id="path2399" class="st1" d="M-29.2,127.5l-179.2,158.7l18.9,21.3l161.1-142.6l161,142.6l18.8-21.3L-27.7,127.5l-0.7,0.8
		L-29.2,127.5L-29.2,127.5L-29.2,127.5z"/>
	<path id="rect2404" class="st1" d="M-154.8,150.4h45.4l-0.4,26.9l-45,40.7V150.4L-154.8,150.4z"/>
</g>
</svg>
